<svg xmlns="http://www.w3.org/2000/svg" width="500" height="500" fill="none" viewBox="0 0 500 500"><mask id="a" width="16" height="16" x="0" y="0" maskUnits="userSpaceOnUse"><path fill="#fff" fill-rule="evenodd" d="m16 11.018-.001.57c-.001.16-.003.32-.007.481-.01.349-.03.701-.094 1.046a3.49 3.49 0 0 1-.331.995 3.342 3.342 0 0 1-1.48 1.462 3.592 3.592 0 0 1-1.005.328c-.349.062-.705.082-1.058.092-.679.008-.871.008-1.064.008H5.04a46.9 46.9 0 0 1-1.064-.008c-.353-.01-.709-.03-1.058-.092a3.592 3.592 0 0 1-1.006-.328A3.377 3.377 0 0 1 .433 14.11a3.509 3.509 0 0 1-.331-.995 6.894 6.894 0 0 1-.093-1.046c-.005-.16-.007-.32-.008-.48L0 11.018V4.982l.001-.57c.001-.16.003-.32.008-.481.01-.349.03-.701.093-1.046.063-.35.167-.676.331-.995A3.341 3.341 0 0 1 1.913.428 3.59 3.59 0 0 1 2.917.1c.35-.062.705-.082 1.058-.092C4.656 0 4.848 0 5.04 0h5.763H8.75h2.21c.74.002.902.004 1.064.008.353.01.709.03 1.058.092a3.59 3.59 0 0 1 1.006.328 3.374 3.374 0 0 1 1.479 1.462c.164.319.268.644.332.995.062.345.083.697.093 1.046.004.16.006.32.007.48l.001.571v3.851z" clip-rule="evenodd"/></mask><g mask="url(#a)" transform="scale(31.25)"><path fill="#ef0e0e" d="M0 0h16v16H0z"/><path fill="#000" d="M12.28 7.565H9.104l.515-4.49a.067.067 0 0 0-.112-.056l-5.82 5.564a.067.067 0 0 0 .047.115l3.096-.033-.443 4.595a.067.067 0 0 0 .112.055l5.827-5.635a.067.067 0 0 0-.046-.115Z"/></g></svg>